<svg xmlns="http://www.w3.org/2000/svg" width="1440" height="560" viewBox="0 0 1440 560" role="img" aria-labelledby="title desc">
  <title id="title">Faro outreach signal control center</title>
  <desc id="desc">A lighthouse projects a calm signal across a grid of outreach data, response points, and a sponsorship pipeline.</desc>
  <defs>
    <linearGradient id="sea" x1="0" y1="0" x2="0" y2="1"><stop stop-color="#161616"/><stop offset="1" stop-color="#262626"/></linearGradient>
    <linearGradient id="beam" x1="0" y1="0" x2="1" y2="0"><stop stop-color="#3ddbd9" stop-opacity=".8"/><stop offset="1" stop-color="#3ddbd9" stop-opacity="0"/></linearGradient>
    <pattern id="grid" width="48" height="48" patternUnits="userSpaceOnUse"><path d="M48 0H0v48" fill="none" stroke="#525252" stroke-width="1"/></pattern>
  </defs>
  <rect width="1440" height="560" fill="url(#sea)"/>
  <rect width="1440" height="560" fill="url(#grid)" opacity=".42"/>
  <path d="M0 450C280 413 457 479 732 442s448-4 708 22v96H0z" fill="#0f62fe" opacity=".18"/>
  <path d="M236 193 1092 72l2 178-858 28z" fill="url(#beam)" opacity=".5"/>
  <path d="m176 197 60-60 60 60v78H176z" fill="#0f62fe"/>
  <circle cx="236" cy="219" r="26" fill="#3ddbd9"/>
  <path d="M159 291h154l48 241H111z" fill="#161616" stroke="#f4f4f4" stroke-width="10"/>
  <path d="M83 532h306M136 415h200M150 345h172" stroke="#f4f4f4" stroke-width="10"/>
  <g fill="#78a9ff">
    <circle cx="554" cy="196" r="9"/><circle cx="687" cy="159" r="7"/><circle cx="810" cy="181" r="12"/><circle cx="935" cy="128" r="8"/><circle cx="1070" cy="168" r="10"/>
  </g>
  <path d="m554 196 133-37 123 22 125-53 135 40" fill="none" stroke="#78a9ff" stroke-width="4"/>
  <g transform="translate(500 315)">
    <rect width="760" height="136" fill="#262626" stroke="#525252"/>
    <path d="M44 98h92V38H44zm125 0h92V24h-92zm125 0h92V48h-92zm125 0h92V16h-92zm125 0h92V62h-92zm125 0h48V73h-48z" fill="#0f62fe"/>
    <path d="M44 108h673" stroke="#8d8d8d"/>
    <text x="44" y="126" fill="#c6c6c6" font-family="IBM Plex Mono,monospace" font-size="12">RESPONSE SIGNAL · RECIPIENT-LOCAL TIME · GOVERNED CONTEXT</text>
  </g>
  <text x="500" y="505" fill="#f4f4f4" font-family="IBM Plex Sans,sans-serif" font-size="30" font-weight="300">Clear signals. Better timing. Human-approved action.</text>
</svg>
